<svg width="18" height="14" viewBox="0 0 18 14" fill="none" xmlns="http://www.w3.org/2000/svg">
<path d="M11.5211 13.7891C11.5211 13.7891 16.0221 9.28414 17.7761 7.52914C17.9221 7.38314 17.9951 7.19114 17.9951 6.99914C17.9951 6.80714 17.9221 6.61614 17.7761 6.46914C16.0231 4.71514 11.5211 0.211141 11.5211 0.211141C11.3771 0.0661406 11.1871 -0.00585938 10.9971 -0.00585938C10.8041 -0.00585938 10.6121 0.0681403 10.4651 0.21514C10.1721 0.50714 10.1701 0.981141 10.4611 1.27114L15.4391 6.24914H0.74707C0.33307 6.24914 -0.00292969 6.58514 -0.00292969 6.99914C-0.00292969 7.41314 0.33307 7.74914 0.74707 7.74914H15.4391L10.4601 12.7281C10.1711 13.0171 10.1741 13.4901 10.4661 13.7821C10.6141 13.9301 10.8071 14.0041 10.9991 14.0041C11.1891 14.0041 11.3771 13.9321 11.5211 13.7891Z" fill="black"/>
</svg>
